<mxfile host="app.diagrams.net" modified="2024-05-12T21:15:58.609Z" agent="Mozilla/5.0 (Windows NT 10.0; Win64; x64) AppleWebKit/537.36 (KHTML, like Gecko) Chrome/124.0.0.0 Safari/537.36 Viewer/95.9.7038.39" etag="sU4R7aTK2PigUWJpT-D0" version="24.3.1" type="device">
  <diagram name="Page-1" id="b520641d-4fe3-3701-9064-5fc419738815">
    <mxGraphModel dx="4200" dy="2938" grid="1" gridSize="10" guides="1" tooltips="1" connect="1" arrows="1" fold="1" page="1" pageScale="1" pageWidth="1100" pageHeight="850" background="none" math="0" shadow="0">
      <root>
        <mxCell id="0" />
        <mxCell id="1" parent="0" />
        <mxCell id="SphZh9zDYfGgMT8O1et2-61" value="Detalle" style="swimlane;fontStyle=1;align=center;verticalAlign=top;childLayout=stackLayout;horizontal=1;startSize=26;horizontalStack=0;resizeParent=1;resizeParentMax=0;resizeLast=0;collapsible=1;marginBottom=0;whiteSpace=wrap;html=1;" vertex="1" parent="1">
          <mxGeometry x="50" y="40" width="390" height="324" as="geometry" />
        </mxCell>
        <mxCell id="SphZh9zDYfGgMT8O1et2-62" value="&lt;span id=&quot;docs-internal-guid-a2fcb7bc-7fff-6b2f-8be2-5b101be5a8ca&quot;&gt;&lt;p style=&quot;line-height:1.38;margin-top:0pt;margin-bottom:0pt;&quot; dir=&quot;ltr&quot;&gt;&lt;span style=&quot;font-size: 11pt; font-family: Arial, sans-serif; background-color: transparent; font-variant-numeric: normal; font-variant-east-asian: normal; font-variant-alternates: normal; font-variant-position: normal; vertical-align: baseline; white-space-collapse: preserve;&quot;&gt;- perfiles: List&amp;lt;Map&amp;lt;String, String&amp;gt;&amp;gt;&amp;nbsp;&lt;/span&gt;&lt;/p&gt;&lt;p style=&quot;line-height:1.2;margin-top:0pt;margin-bottom:0pt;&quot; dir=&quot;ltr&quot;&gt;&lt;span style=&quot;font-size: 11pt; font-family: Arial, sans-serif; background-color: transparent; font-variant-numeric: normal; font-variant-east-asian: normal; font-variant-alternates: normal; font-variant-position: normal; vertical-align: baseline; white-space-collapse: preserve;&quot;&gt;- titulo: &amp;lt;String&amp;gt;&lt;/span&gt;&lt;/p&gt;&lt;p style=&quot;line-height:1.2;margin-top:0pt;margin-bottom:0pt;&quot; dir=&quot;ltr&quot;&gt;&lt;span style=&quot;font-size: 11pt; font-family: Arial, sans-serif; background-color: transparent; font-variant-numeric: normal; font-variant-east-asian: normal; font-variant-alternates: normal; font-variant-position: normal; vertical-align: baseline; white-space-collapse: preserve;&quot;&gt;- descripcion: &amp;lt;String&amp;gt;&lt;/span&gt;&lt;/p&gt;&lt;p style=&quot;line-height:1.2;margin-top:0pt;margin-bottom:0pt;&quot; dir=&quot;ltr&quot;&gt;&lt;span style=&quot;font-size: 11pt; font-family: Arial, sans-serif; background-color: transparent; font-variant-numeric: normal; font-variant-east-asian: normal; font-variant-alternates: normal; font-variant-position: normal; vertical-align: baseline; white-space-collapse: preserve;&quot;&gt; clasificacionEdad: &amp;lt;String&amp;gt;&lt;/span&gt;&lt;/p&gt;&lt;p style=&quot;line-height:1.2;margin-top:0pt;margin-bottom:0pt;&quot; dir=&quot;ltr&quot;&gt;&lt;span style=&quot;font-size: 11pt; font-family: Arial, sans-serif; background-color: transparent; font-variant-numeric: normal; font-variant-east-asian: normal; font-variant-alternates: normal; font-variant-position: normal; vertical-align: baseline; white-space-collapse: preserve;&quot;&gt;- genero: &amp;lt;String&amp;gt;&amp;nbsp;&lt;/span&gt;&lt;/p&gt;&lt;p style=&quot;line-height:1.2;margin-top:0pt;margin-bottom:0pt;&quot; dir=&quot;ltr&quot;&gt;&lt;span style=&quot;font-size: 11pt; font-family: Arial, sans-serif; background-color: transparent; font-variant-numeric: normal; font-variant-east-asian: normal; font-variant-alternates: normal; font-variant-position: normal; vertical-align: baseline; white-space-collapse: preserve;&quot;&gt;- fechaLanzamiento:&amp;lt;String&amp;gt;&lt;/span&gt;&lt;/p&gt;&lt;div&gt;&lt;span style=&quot;font-size: 11pt; font-family: Arial, sans-serif; background-color: transparent; font-variant-numeric: normal; font-variant-east-asian: normal; font-variant-alternates: normal; font-variant-position: normal; vertical-align: baseline; white-space-collapse: preserve;&quot;&gt;&lt;br&gt;&lt;/span&gt;&lt;/div&gt;&lt;/span&gt;" style="text;strokeColor=none;fillColor=none;align=left;verticalAlign=top;spacingLeft=4;spacingRight=4;overflow=hidden;rotatable=0;points=[[0,0.5],[1,0.5]];portConstraint=eastwest;whiteSpace=wrap;html=1;" vertex="1" parent="SphZh9zDYfGgMT8O1et2-61">
          <mxGeometry y="26" width="390" height="140" as="geometry" />
        </mxCell>
        <mxCell id="SphZh9zDYfGgMT8O1et2-63" value="" style="line;strokeWidth=1;fillColor=none;align=left;verticalAlign=middle;spacingTop=-1;spacingLeft=3;spacingRight=3;rotatable=0;labelPosition=right;points=[];portConstraint=eastwest;strokeColor=inherit;" vertex="1" parent="SphZh9zDYfGgMT8O1et2-61">
          <mxGeometry y="166" width="390" height="8" as="geometry" />
        </mxCell>
        <mxCell id="SphZh9zDYfGgMT8O1et2-64" value="&lt;span id=&quot;docs-internal-guid-5bb00e2b-7fff-67f8-804e-519811018aa2&quot;&gt;&lt;p style=&quot;line-height:1.38;margin-top:0pt;margin-bottom:0pt;&quot; dir=&quot;ltr&quot;&gt;&lt;span style=&quot;font-size: 11pt; font-family: Arial, sans-serif; background-color: transparent; font-variant-numeric: normal; font-variant-east-asian: normal; font-variant-alternates: normal; font-variant-position: normal; vertical-align: baseline; white-space-collapse: preserve;&quot;&gt;+ Detalle()&amp;nbsp;&amp;nbsp;&amp;nbsp;&amp;nbsp;&amp;nbsp;&amp;nbsp;&amp;nbsp;&amp;nbsp;&amp;nbsp;&amp;nbsp;&amp;nbsp;&amp;nbsp;&amp;nbsp;&amp;nbsp;&amp;nbsp;&amp;nbsp;&amp;nbsp;&amp;nbsp;&amp;nbsp;&amp;nbsp;&amp;nbsp;&lt;/span&gt;&lt;/p&gt;&lt;p style=&quot;line-height:1.38;margin-top:0pt;margin-bottom:0pt;&quot; dir=&quot;ltr&quot;&gt;&lt;span style=&quot;font-size: 11pt; font-family: Arial, sans-serif; background-color: transparent; font-variant-numeric: normal; font-variant-east-asian: normal; font-variant-alternates: normal; font-variant-position: normal; vertical-align: baseline; white-space-collapse: preserve;&quot;&gt;- _mostrarAgregarPerfilDialog(BuildContext): void&amp;nbsp;&lt;/span&gt;&lt;/p&gt;&lt;p style=&quot;line-height:1.38;margin-top:0pt;margin-bottom:0pt;&quot; dir=&quot;ltr&quot;&gt;&lt;span style=&quot;font-size: 11pt; font-family: Arial, sans-serif; background-color: transparent; font-variant-numeric: normal; font-variant-east-asian: normal; font-variant-alternates: normal; font-variant-position: normal; vertical-align: baseline; white-space-collapse: preserve;&quot;&gt;- _verPerfilDialog(BuildContext): void&amp;nbsp;&lt;/span&gt;&lt;/p&gt;&lt;p style=&quot;line-height:1.38;margin-top:0pt;margin-bottom:0pt;&quot; dir=&quot;ltr&quot;&gt;&lt;span style=&quot;font-size: 11pt; font-family: Arial, sans-serif; background-color: transparent; font-variant-numeric: normal; font-variant-east-asian: normal; font-variant-alternates: normal; font-variant-position: normal; vertical-align: baseline; white-space-collapse: preserve;&quot;&gt;- _mostrarDetallesUsuarioDialog(BuildContext): voic&lt;/span&gt;&lt;/p&gt;&lt;p style=&quot;line-height:1.38;margin-top:0pt;margin-bottom:0pt;&quot; dir=&quot;ltr&quot;&gt;&lt;span style=&quot;font-size: 11pt; font-family: Arial, sans-serif; background-color: transparent; font-variant-numeric: normal; font-variant-east-asian: normal; font-variant-alternates: normal; font-variant-position: normal; vertical-align: baseline; white-space-collapse: preserve;&quot;&gt;-_mostrarAgregarVideojuegoDialog(BuildContext): void&amp;nbsp;&lt;/span&gt;&lt;/p&gt;&lt;p style=&quot;line-height:1.38;margin-top:0pt;margin-bottom:0pt;&quot; dir=&quot;ltr&quot;&gt;&lt;span style=&quot;font-size: 11pt; font-family: Arial, sans-serif; background-color: transparent; font-variant-numeric: normal; font-variant-east-asian: normal; font-variant-alternates: normal; font-variant-position: normal; vertical-align: baseline; white-space-collapse: preserve;&quot;&gt;+ build(BuildContext): Widget&lt;/span&gt;&lt;/p&gt;&lt;div&gt;&lt;span style=&quot;font-size: 11pt; font-family: Arial, sans-serif; background-color: transparent; font-variant-numeric: normal; font-variant-east-asian: normal; font-variant-alternates: normal; font-variant-position: normal; vertical-align: baseline; white-space-collapse: preserve;&quot;&gt;&lt;br&gt;&lt;/span&gt;&lt;/div&gt;&lt;/span&gt;" style="text;strokeColor=none;fillColor=none;align=left;verticalAlign=top;spacingLeft=4;spacingRight=4;overflow=hidden;rotatable=0;points=[[0,0.5],[1,0.5]];portConstraint=eastwest;whiteSpace=wrap;html=1;" vertex="1" parent="SphZh9zDYfGgMT8O1et2-61">
          <mxGeometry y="174" width="390" height="150" as="geometry" />
        </mxCell>
        <mxCell id="SphZh9zDYfGgMT8O1et2-66" value="Perfil&lt;div&gt;&lt;br&gt;&lt;/div&gt;" style="swimlane;fontStyle=1;align=center;verticalAlign=top;childLayout=stackLayout;horizontal=1;startSize=26;horizontalStack=0;resizeParent=1;resizeParentMax=0;resizeLast=0;collapsible=1;marginBottom=0;whiteSpace=wrap;html=1;" vertex="1" parent="1">
          <mxGeometry x="30" y="623" width="200" height="134" as="geometry" />
        </mxCell>
        <mxCell id="SphZh9zDYfGgMT8O1et2-67" value="&lt;span id=&quot;docs-internal-guid-59bb931c-7fff-1dcf-b2c4-5a0e61f7b15e&quot;&gt;&lt;p style=&quot;line-height:1.2;margin-top:0pt;margin-bottom:0pt;&quot; dir=&quot;ltr&quot;&gt;&lt;span style=&quot;font-size: 11pt; font-family: Arial, sans-serif; background-color: transparent; font-variant-numeric: normal; font-variant-east-asian: normal; font-variant-alternates: normal; font-variant-position: normal; vertical-align: baseline; white-space-collapse: preserve;&quot;&gt;- nombre:&amp;lt;String&amp;gt;&lt;/span&gt;&lt;/p&gt;&lt;p style=&quot;line-height:1.2;margin-top:0pt;margin-bottom:0pt;&quot; dir=&quot;ltr&quot;&gt;&lt;span style=&quot;font-size: 11pt; font-family: Arial, sans-serif; background-color: transparent; font-variant-numeric: normal; font-variant-east-asian: normal; font-variant-alternates: normal; font-variant-position: normal; vertical-align: baseline; white-space-collapse: preserve;&quot;&gt;- correos:&amp;lt;String&amp;gt;&lt;/span&gt;&lt;/p&gt;&lt;p style=&quot;line-height:1.2;margin-top:0pt;margin-bottom:0pt;&quot; dir=&quot;ltr&quot;&gt;&lt;span style=&quot;font-size: 11pt; font-family: Arial, sans-serif; background-color: transparent; font-variant-numeric: normal; font-variant-east-asian: normal; font-variant-alternates: normal; font-variant-position: normal; vertical-align: baseline; white-space-collapse: preserve;&quot;&gt;- hobbies:&amp;lt;String&amp;gt;&lt;/span&gt;&lt;/p&gt;&lt;p style=&quot;line-height:1.2;margin-top:0pt;margin-bottom:0pt;&quot; dir=&quot;ltr&quot;&gt;&lt;span style=&quot;background-color: transparent; font-family: Arial, sans-serif; font-size: 11pt; white-space-collapse: preserve;&quot;&gt;-juegosFavoritos:&amp;lt;String&amp;gt;&lt;/span&gt;&lt;/p&gt;&lt;div&gt;&lt;span style=&quot;font-size: 11pt; font-family: Arial, sans-serif; background-color: transparent; font-variant-numeric: normal; font-variant-east-asian: normal; font-variant-alternates: normal; font-variant-position: normal; vertical-align: baseline; white-space-collapse: preserve;&quot;&gt;&lt;br&gt;&lt;/span&gt;&lt;/div&gt;&lt;/span&gt;" style="text;strokeColor=none;fillColor=none;align=left;verticalAlign=top;spacingLeft=4;spacingRight=4;overflow=hidden;rotatable=0;points=[[0,0.5],[1,0.5]];portConstraint=eastwest;whiteSpace=wrap;html=1;" vertex="1" parent="SphZh9zDYfGgMT8O1et2-66">
          <mxGeometry y="26" width="200" height="100" as="geometry" />
        </mxCell>
        <mxCell id="SphZh9zDYfGgMT8O1et2-68" value="" style="line;strokeWidth=1;fillColor=none;align=left;verticalAlign=middle;spacingTop=-1;spacingLeft=3;spacingRight=3;rotatable=0;labelPosition=right;points=[];portConstraint=eastwest;strokeColor=inherit;" vertex="1" parent="SphZh9zDYfGgMT8O1et2-66">
          <mxGeometry y="126" width="200" height="8" as="geometry" />
        </mxCell>
        <mxCell id="SphZh9zDYfGgMT8O1et2-70" value="&lt;span id=&quot;docs-internal-guid-5c316538-7fff-8226-e61c-ddefbb5d9899&quot; style=&quot;font-weight:normal;&quot;&gt;&lt;span style=&quot;font-size: 11pt; font-family: Arial, sans-serif; background-color: transparent; font-variant-numeric: normal; font-variant-east-asian: normal; font-variant-alternates: normal; font-variant-position: normal; vertical-align: baseline; white-space-collapse: preserve;&quot;&gt;Rutina&lt;/span&gt;&lt;/span&gt;" style="swimlane;fontStyle=1;align=center;verticalAlign=top;childLayout=stackLayout;horizontal=1;startSize=26;horizontalStack=0;resizeParent=1;resizeParentMax=0;resizeLast=0;collapsible=1;marginBottom=0;whiteSpace=wrap;html=1;" vertex="1" parent="1">
          <mxGeometry x="620" y="40" width="290" height="194" as="geometry" />
        </mxCell>
        <mxCell id="SphZh9zDYfGgMT8O1et2-71" value="&lt;span id=&quot;docs-internal-guid-f825d7a3-7fff-bbc2-c648-997dc9571c14&quot;&gt;&lt;p style=&quot;line-height:1.38;margin-top:0pt;margin-bottom:0pt;&quot; dir=&quot;ltr&quot;&gt;&lt;span style=&quot;font-size:11pt;font-family:Arial,sans-serif;color:#000000;background-color:transparent;font-weight:400;font-style:normal;font-variant:normal;text-decoration:none;vertical-align:baseline;white-space:pre;white-space:pre-wrap;&quot;&gt;- nombreJuego: &amp;lt;String&amp;gt;&amp;nbsp;&lt;/span&gt;&lt;/p&gt;&lt;p style=&quot;line-height:1.38;margin-top:0pt;margin-bottom:0pt;&quot; dir=&quot;ltr&quot;&gt;&lt;span style=&quot;font-size:11pt;font-family:Arial,sans-serif;color:#000000;background-color:transparent;font-weight:400;font-style:normal;font-variant:normal;text-decoration:none;vertical-align:baseline;white-space:pre;white-space:pre-wrap;&quot;&gt;-instrucciones &amp;lt;&amp;lt;List&amp;gt;String&amp;gt;&amp;gt;&lt;/span&gt;&lt;/p&gt;&lt;p style=&quot;line-height:1.38;margin-top:0pt;margin-bottom:0pt;&quot; dir=&quot;ltr&quot;&gt;&lt;span id=&quot;docs-internal-guid-03b2c406-7fff-788f-0c5a-0ac028d5baa6&quot;&gt;&lt;/span&gt;&lt;/p&gt;&lt;p style=&quot;line-height:1.38;margin-top:0pt;margin-bottom:0pt;&quot; dir=&quot;ltr&quot;&gt;&lt;span style=&quot;font-size:11pt;font-family:Arial,sans-serif;color:#000000;background-color:transparent;font-weight:400;font-style:normal;font-variant:normal;text-decoration:none;vertical-align:baseline;white-space:pre;white-space:pre-wrap;&quot;&gt;-nivelDificultad -&amp;lt;List&amp;gt;String&amp;gt;&amp;gt;&lt;/span&gt;&lt;/p&gt;&lt;/span&gt;" style="text;strokeColor=none;fillColor=none;align=left;verticalAlign=top;spacingLeft=4;spacingRight=4;overflow=hidden;rotatable=0;points=[[0,0.5],[1,0.5]];portConstraint=eastwest;whiteSpace=wrap;html=1;" vertex="1" parent="SphZh9zDYfGgMT8O1et2-70">
          <mxGeometry y="26" width="290" height="90" as="geometry" />
        </mxCell>
        <mxCell id="SphZh9zDYfGgMT8O1et2-72" value="" style="line;strokeWidth=1;fillColor=none;align=left;verticalAlign=middle;spacingTop=-1;spacingLeft=3;spacingRight=3;rotatable=0;labelPosition=right;points=[];portConstraint=eastwest;strokeColor=inherit;" vertex="1" parent="SphZh9zDYfGgMT8O1et2-70">
          <mxGeometry y="116" width="290" height="8" as="geometry" />
        </mxCell>
        <mxCell id="SphZh9zDYfGgMT8O1et2-73" value="&lt;span id=&quot;docs-internal-guid-7077f25a-7fff-1855-33a6-dcd6f7abb835&quot;&gt;&lt;p style=&quot;line-height:1.38;margin-top:0pt;margin-bottom:0pt;&quot; dir=&quot;ltr&quot;&gt;&lt;span style=&quot;font-size: 11pt; font-family: Arial, sans-serif; background-color: transparent; font-variant-numeric: normal; font-variant-east-asian: normal; font-variant-alternates: normal; font-variant-position: normal; vertical-align: baseline; white-space-collapse: preserve;&quot;&gt;+ Rutina({Key?, String?})&amp;nbsp;&lt;/span&gt;&lt;/p&gt;&lt;p style=&quot;line-height:1.38;margin-top:0pt;margin-bottom:0pt;&quot; dir=&quot;ltr&quot;&gt;&lt;span style=&quot;font-size: 11pt; font-family: Arial, sans-serif; background-color: transparent; font-variant-numeric: normal; font-variant-east-asian: normal; font-variant-alternates: normal; font-variant-position: normal; vertical-align: baseline; white-space-collapse: preserve;&quot;&gt; -_mostrarEstrategia(BuildContext): void&lt;/span&gt;&lt;/p&gt;&lt;p style=&quot;line-height:1.38;margin-top:0pt;margin-bottom:0pt;&quot; dir=&quot;ltr&quot;&gt;&lt;span style=&quot;font-size: 11pt; font-family: Arial, sans-serif; background-color: transparent; font-variant-numeric: normal; font-variant-east-asian: normal; font-variant-alternates: normal; font-variant-position: normal; vertical-align: baseline; white-space-collapse: preserve;&quot;&gt;+ build(BuildContext): Widget&lt;/span&gt;&lt;/p&gt;&lt;/span&gt;" style="text;strokeColor=none;fillColor=none;align=left;verticalAlign=top;spacingLeft=4;spacingRight=4;overflow=hidden;rotatable=0;points=[[0,0.5],[1,0.5]];portConstraint=eastwest;whiteSpace=wrap;html=1;" vertex="1" parent="SphZh9zDYfGgMT8O1et2-70">
          <mxGeometry y="124" width="290" height="70" as="geometry" />
        </mxCell>
        <mxCell id="SphZh9zDYfGgMT8O1et2-80" value="Instrucciones&lt;div&gt;&lt;br&gt;&lt;/div&gt;" style="swimlane;fontStyle=1;align=center;verticalAlign=top;childLayout=stackLayout;horizontal=1;startSize=26;horizontalStack=0;resizeParent=1;resizeParentMax=0;resizeLast=0;collapsible=1;marginBottom=0;whiteSpace=wrap;html=1;" vertex="1" parent="1">
          <mxGeometry x="810" y="510" width="250" height="144" as="geometry" />
        </mxCell>
        <mxCell id="SphZh9zDYfGgMT8O1et2-81" value="&lt;span id=&quot;docs-internal-guid-aa778117-7fff-2024-40f1-b41140030a6d&quot;&gt;&lt;p style=&quot;line-height:1.2;margin-top:0pt;margin-bottom:0pt;&quot; dir=&quot;ltr&quot;&gt;&lt;span style=&quot;font-size: 11pt; font-family: Arial, sans-serif; background-color: transparent; font-variant-numeric: normal; font-variant-east-asian: normal; font-variant-alternates: normal; font-variant-position: normal; vertical-align: baseline; white-space-collapse: preserve;&quot;&gt;-opcionA: &amp;lt;String&amp;gt;&lt;/span&gt;&lt;/p&gt;&lt;p style=&quot;line-height:1.2;margin-top:0pt;margin-bottom:0pt;&quot; dir=&quot;ltr&quot;&gt;&lt;span style=&quot;font-size: 11pt; font-family: Arial, sans-serif; background-color: transparent; font-variant-numeric: normal; font-variant-east-asian: normal; font-variant-alternates: normal; font-variant-position: normal; vertical-align: baseline; white-space-collapse: preserve;&quot;&gt;-opcionB: &amp;lt;String&amp;gt;&lt;/span&gt;&lt;/p&gt;&lt;p style=&quot;line-height:1.2;margin-top:0pt;margin-bottom:0pt;&quot; dir=&quot;ltr&quot;&gt;&lt;span style=&quot;background-color: transparent; font-family: Arial, sans-serif; font-size: 11pt; white-space-collapse: preserve;&quot;&gt;-opcionC: &amp;lt;String&amp;gt;&lt;/span&gt;&lt;/p&gt;&lt;div&gt;&lt;span style=&quot;font-size: 11pt; font-family: Arial, sans-serif; background-color: transparent; font-variant-numeric: normal; font-variant-east-asian: normal; font-variant-alternates: normal; font-variant-position: normal; vertical-align: baseline; white-space-collapse: preserve;&quot;&gt;&lt;br&gt;&lt;/span&gt;&lt;/div&gt;&lt;/span&gt;" style="text;strokeColor=none;fillColor=none;align=left;verticalAlign=top;spacingLeft=4;spacingRight=4;overflow=hidden;rotatable=0;points=[[0,0.5],[1,0.5]];portConstraint=eastwest;whiteSpace=wrap;html=1;" vertex="1" parent="SphZh9zDYfGgMT8O1et2-80">
          <mxGeometry y="26" width="250" height="80" as="geometry" />
        </mxCell>
        <mxCell id="SphZh9zDYfGgMT8O1et2-82" value="" style="line;strokeWidth=1;fillColor=none;align=left;verticalAlign=middle;spacingTop=-1;spacingLeft=3;spacingRight=3;rotatable=0;labelPosition=right;points=[];portConstraint=eastwest;strokeColor=inherit;" vertex="1" parent="SphZh9zDYfGgMT8O1et2-80">
          <mxGeometry y="106" width="250" height="8" as="geometry" />
        </mxCell>
        <mxCell id="SphZh9zDYfGgMT8O1et2-83" value="&lt;span id=&quot;docs-internal-guid-f2578f38-7fff-8ca7-f87e-f7765a95e577&quot;&gt;&lt;span style=&quot;font-size: 11pt; font-family: Arial, sans-serif; background-color: transparent; font-variant-numeric: normal; font-variant-east-asian: normal; font-variant-alternates: normal; font-variant-position: normal; vertical-align: baseline; white-space-collapse: preserve;&quot;&gt;+apretarBoton(BuildContext): void&lt;/span&gt;&lt;/span&gt;" style="text;strokeColor=none;fillColor=none;align=left;verticalAlign=top;spacingLeft=4;spacingRight=4;overflow=hidden;rotatable=0;points=[[0,0.5],[1,0.5]];portConstraint=eastwest;whiteSpace=wrap;html=1;" vertex="1" parent="SphZh9zDYfGgMT8O1et2-80">
          <mxGeometry y="114" width="250" height="30" as="geometry" />
        </mxCell>
        <mxCell id="SphZh9zDYfGgMT8O1et2-84" value="&lt;span id=&quot;docs-internal-guid-71aa2235-7fff-2320-2b39-e347e5a7c2d3&quot; style=&quot;font-weight:normal;&quot;&gt;&lt;span style=&quot;font-size: 11pt; font-family: Arial, sans-serif; background-color: transparent; font-variant-numeric: normal; font-variant-east-asian: normal; font-variant-alternates: normal; font-variant-position: normal; vertical-align: baseline; white-space-collapse: preserve;&quot;&gt;NivelDificultad&lt;/span&gt;&lt;/span&gt;" style="swimlane;fontStyle=1;align=center;verticalAlign=top;childLayout=stackLayout;horizontal=1;startSize=26;horizontalStack=0;resizeParent=1;resizeParentMax=0;resizeLast=0;collapsible=1;marginBottom=0;whiteSpace=wrap;html=1;" vertex="1" parent="1">
          <mxGeometry x="410" y="490" width="250" height="144" as="geometry" />
        </mxCell>
        <mxCell id="SphZh9zDYfGgMT8O1et2-85" value="&lt;span id=&quot;docs-internal-guid-20be31e1-7fff-8a99-bc90-24f41b770faa&quot;&gt;&lt;p style=&quot;line-height:1.2;margin-top:0pt;margin-bottom:0pt;&quot; dir=&quot;ltr&quot;&gt;&lt;span style=&quot;font-size: 11pt; font-family: Arial, sans-serif; background-color: transparent; font-variant-numeric: normal; font-variant-east-asian: normal; font-variant-alternates: normal; font-variant-position: normal; vertical-align: baseline; white-space-collapse: preserve;&quot;&gt;-facil: &amp;lt;String&amp;gt;&lt;/span&gt;&lt;/p&gt;&lt;p style=&quot;line-height:1.2;margin-top:0pt;margin-bottom:0pt;&quot; dir=&quot;ltr&quot;&gt;&lt;span style=&quot;font-size: 11pt; font-family: Arial, sans-serif; background-color: transparent; font-variant-numeric: normal; font-variant-east-asian: normal; font-variant-alternates: normal; font-variant-position: normal; vertical-align: baseline; white-space-collapse: preserve;&quot;&gt;-medio: &amp;lt;String&amp;gt;&lt;/span&gt;&lt;/p&gt;&lt;p style=&quot;line-height:1.2;margin-top:0pt;margin-bottom:0pt;&quot; dir=&quot;ltr&quot;&gt;&lt;span style=&quot;font-size: 11pt; font-family: Arial, sans-serif; background-color: transparent; font-variant-numeric: normal; font-variant-east-asian: normal; font-variant-alternates: normal; font-variant-position: normal; vertical-align: baseline; white-space-collapse: preserve;&quot;&gt;-dificil: &amp;lt;String&amp;gt;&lt;/span&gt;&lt;/p&gt;&lt;div&gt;&lt;span style=&quot;font-size: 11pt; font-family: Arial, sans-serif; background-color: transparent; font-variant-numeric: normal; font-variant-east-asian: normal; font-variant-alternates: normal; font-variant-position: normal; vertical-align: baseline; white-space-collapse: preserve;&quot;&gt;&lt;br&gt;&lt;/span&gt;&lt;/div&gt;&lt;/span&gt;" style="text;strokeColor=none;fillColor=none;align=left;verticalAlign=top;spacingLeft=4;spacingRight=4;overflow=hidden;rotatable=0;points=[[0,0.5],[1,0.5]];portConstraint=eastwest;whiteSpace=wrap;html=1;" vertex="1" parent="SphZh9zDYfGgMT8O1et2-84">
          <mxGeometry y="26" width="250" height="80" as="geometry" />
        </mxCell>
        <mxCell id="SphZh9zDYfGgMT8O1et2-86" value="" style="line;strokeWidth=1;fillColor=none;align=left;verticalAlign=middle;spacingTop=-1;spacingLeft=3;spacingRight=3;rotatable=0;labelPosition=right;points=[];portConstraint=eastwest;strokeColor=inherit;" vertex="1" parent="SphZh9zDYfGgMT8O1et2-84">
          <mxGeometry y="106" width="250" height="8" as="geometry" />
        </mxCell>
        <mxCell id="SphZh9zDYfGgMT8O1et2-87" value="&lt;span id=&quot;docs-internal-guid-bc775d19-7fff-ba97-78bc-cdcbfca65f52&quot;&gt;&lt;span style=&quot;font-size: 11pt; font-family: Arial, sans-serif; background-color: transparent; font-variant-numeric: normal; font-variant-east-asian: normal; font-variant-alternates: normal; font-variant-position: normal; vertical-align: baseline; white-space-collapse: preserve;&quot;&gt;+apretarBoton(BuildContext): void&lt;/span&gt;&lt;/span&gt;" style="text;strokeColor=none;fillColor=none;align=left;verticalAlign=top;spacingLeft=4;spacingRight=4;overflow=hidden;rotatable=0;points=[[0,0.5],[1,0.5]];portConstraint=eastwest;whiteSpace=wrap;html=1;" vertex="1" parent="SphZh9zDYfGgMT8O1et2-84">
          <mxGeometry y="114" width="250" height="30" as="geometry" />
        </mxCell>
        <mxCell id="SphZh9zDYfGgMT8O1et2-92" value="Usuario" style="swimlane;fontStyle=1;align=center;verticalAlign=top;childLayout=stackLayout;horizontal=1;startSize=26;horizontalStack=0;resizeParent=1;resizeParentMax=0;resizeLast=0;collapsible=1;marginBottom=0;whiteSpace=wrap;html=1;" vertex="1" parent="1">
          <mxGeometry x="400" y="-850" width="320" height="214" as="geometry" />
        </mxCell>
        <mxCell id="SphZh9zDYfGgMT8O1et2-93" value="&lt;span id=&quot;docs-internal-guid-73de3b5b-7fff-65b2-28ae-c07a0b48ded1&quot;&gt;&lt;p style=&quot;line-height:1.38;margin-top:0pt;margin-bottom:0pt;&quot; dir=&quot;ltr&quot;&gt;&lt;span style=&quot;font-size:11pt;font-family:Arial,sans-serif;color:#000000;background-color:transparent;font-weight:400;font-style:normal;font-variant:normal;text-decoration:none;vertical-align:baseline;white-space:pre;white-space:pre-wrap;&quot;&gt;&amp;nbsp;- _usuario: TextEditingController&amp;nbsp;&lt;/span&gt;&lt;/p&gt;&lt;p style=&quot;line-height:1.38;margin-top:0pt;margin-bottom:0pt;&quot; dir=&quot;ltr&quot;&gt;&lt;span id=&quot;docs-internal-guid-0c5694d6-7fff-62a9-cee0-000daa9961b5&quot;&gt;&lt;/span&gt;&lt;/p&gt;&lt;p style=&quot;line-height:1.38;margin-top:0pt;margin-bottom:0pt;&quot; dir=&quot;ltr&quot;&gt;&lt;span style=&quot;font-size:11pt;font-family:Arial,sans-serif;color:#000000;background-color:transparent;font-weight:400;font-style:normal;font-variant:normal;text-decoration:none;vertical-align:baseline;white-space:pre;white-space:pre-wrap;&quot;&gt;&lt;br&gt;&lt;/span&gt;&lt;/p&gt;&lt;p style=&quot;line-height:1.38;margin-top:0pt;margin-bottom:0pt;&quot; dir=&quot;ltr&quot;&gt;&lt;span style=&quot;font-size:11pt;font-family:Arial,sans-serif;color:#000000;background-color:transparent;font-weight:400;font-style:normal;font-variant:normal;text-decoration:none;vertical-align:baseline;white-space:pre;white-space:pre-wrap;&quot;&gt;&amp;nbsp;- _clave: TextEditingController &lt;/span&gt;&lt;/p&gt;&lt;/span&gt;" style="text;strokeColor=none;fillColor=none;align=left;verticalAlign=top;spacingLeft=4;spacingRight=4;overflow=hidden;rotatable=0;points=[[0,0.5],[1,0.5]];portConstraint=eastwest;whiteSpace=wrap;html=1;" vertex="1" parent="SphZh9zDYfGgMT8O1et2-92">
          <mxGeometry y="26" width="320" height="70" as="geometry" />
        </mxCell>
        <mxCell id="SphZh9zDYfGgMT8O1et2-94" value="" style="line;strokeWidth=1;fillColor=none;align=left;verticalAlign=middle;spacingTop=-1;spacingLeft=3;spacingRight=3;rotatable=0;labelPosition=right;points=[];portConstraint=eastwest;strokeColor=inherit;" vertex="1" parent="SphZh9zDYfGgMT8O1et2-92">
          <mxGeometry y="96" width="320" height="8" as="geometry" />
        </mxCell>
        <mxCell id="SphZh9zDYfGgMT8O1et2-95" value="&lt;span id=&quot;docs-internal-guid-e6993639-7fff-7626-6c4c-374bd541dd22&quot;&gt;&lt;p style=&quot;line-height:1.38;margin-top:0pt;margin-bottom:0pt;&quot; dir=&quot;ltr&quot;&gt;&lt;span style=&quot;font-size: 11pt; font-family: Arial, sans-serif; background-color: transparent; font-variant-numeric: normal; font-variant-east-asian: normal; font-variant-alternates: normal; font-variant-position: normal; vertical-align: baseline; white-space-collapse: preserve;&quot;&gt;&amp;nbsp;+ Usuario({Key? key})&amp;nbsp;&amp;nbsp;&amp;nbsp;&amp;nbsp;&amp;nbsp;&amp;nbsp;&amp;nbsp;&amp;nbsp;&amp;nbsp;&amp;nbsp;&amp;nbsp;&amp;nbsp;&amp;nbsp;&amp;nbsp;&amp;nbsp;&amp;nbsp;&amp;nbsp;&amp;nbsp;&amp;nbsp;&amp;nbsp;&amp;nbsp;&amp;nbsp;&amp;nbsp;&lt;/span&gt;&lt;span style=&quot;background-color: transparent; font-family: Arial, sans-serif; font-size: 11pt; white-space-collapse: preserve;&quot;&gt; -&lt;/span&gt;&lt;span style=&quot;background-color: transparent; font-family: Arial, sans-serif; font-size: 11pt; white-space-collapse: preserve;&quot;&gt;_submit()&amp;nbsp;&amp;nbsp;&amp;nbsp;&amp;nbsp;&amp;nbsp;&amp;nbsp;&amp;nbsp;&amp;nbsp;&amp;nbsp;&amp;nbsp;&amp;nbsp;&amp;nbsp;&amp;nbsp;&amp;nbsp;&amp;nbsp;&amp;nbsp;&amp;nbsp;&amp;nbsp;&amp;nbsp;&amp;nbsp;&amp;nbsp;&amp;nbsp;&amp;nbsp;&amp;nbsp;&amp;nbsp;&amp;nbsp;&amp;nbsp;&amp;nbsp;&amp;nbsp;&amp;nbsp;&amp;nbsp;&amp;nbsp;&amp;nbsp;&lt;/span&gt;&lt;/p&gt;&lt;p style=&quot;line-height:1.38;margin-top:0pt;margin-bottom:0pt;&quot; dir=&quot;ltr&quot;&gt;&lt;span style=&quot;font-size: 11pt; font-family: Arial, sans-serif; background-color: transparent; font-variant-numeric: normal; font-variant-east-asian: normal; font-variant-alternates: normal; font-variant-position: normal; vertical-align: baseline; white-space-collapse: preserve;&quot;&gt;&amp;nbsp;+ build(BuildContext context)&amp;nbsp;&amp;nbsp;&amp;nbsp;&amp;nbsp;&amp;nbsp;&amp;nbsp;&amp;nbsp;&amp;nbsp;&amp;nbsp;&amp;nbsp;&amp;nbsp;&amp;nbsp;&amp;nbsp;&amp;nbsp;&amp;nbsp;&lt;/span&gt;&lt;/p&gt;&lt;p style=&quot;line-height:1.38;margin-top:0pt;margin-bottom:0pt;&quot; dir=&quot;ltr&quot;&gt;&lt;span style=&quot;font-size: 11pt; font-family: Arial, sans-serif; background-color: transparent; font-variant-numeric: normal; font-variant-east-asian: normal; font-variant-alternates: normal; font-variant-position: normal; vertical-align: baseline; white-space-collapse: preserve;&quot;&gt;&amp;nbsp;+ main() &amp;nbsp; &amp;nbsp; &amp;nbsp; &amp;nbsp; &amp;nbsp; &amp;nbsp; &amp;nbsp; &amp;nbsp; &lt;/span&gt;&lt;/p&gt;&lt;div&gt;&lt;span style=&quot;font-size: 11pt; font-family: Arial, sans-serif; background-color: transparent; font-variant-numeric: normal; font-variant-east-asian: normal; font-variant-alternates: normal; font-variant-position: normal; vertical-align: baseline; white-space-collapse: preserve;&quot;&gt;&lt;br&gt;&lt;/span&gt;&lt;/div&gt;&lt;/span&gt;" style="text;strokeColor=none;fillColor=none;align=left;verticalAlign=top;spacingLeft=4;spacingRight=4;overflow=hidden;rotatable=0;points=[[0,0.5],[1,0.5]];portConstraint=eastwest;whiteSpace=wrap;html=1;" vertex="1" parent="SphZh9zDYfGgMT8O1et2-92">
          <mxGeometry y="104" width="320" height="110" as="geometry" />
        </mxCell>
        <mxCell id="SphZh9zDYfGgMT8O1et2-97" value="Home" style="swimlane;fontStyle=1;align=center;verticalAlign=top;childLayout=stackLayout;horizontal=1;startSize=26;horizontalStack=0;resizeParent=1;resizeParentMax=0;resizeLast=0;collapsible=1;marginBottom=0;whiteSpace=wrap;html=1;" vertex="1" parent="1">
          <mxGeometry x="420" y="-440" width="260" height="134" as="geometry" />
        </mxCell>
        <mxCell id="SphZh9zDYfGgMT8O1et2-98" value="&lt;div&gt;&lt;br&gt;&lt;/div&gt;" style="text;strokeColor=none;fillColor=none;align=left;verticalAlign=top;spacingLeft=4;spacingRight=4;overflow=hidden;rotatable=0;points=[[0,0.5],[1,0.5]];portConstraint=eastwest;whiteSpace=wrap;html=1;" vertex="1" parent="SphZh9zDYfGgMT8O1et2-97">
          <mxGeometry y="26" width="260" height="30" as="geometry" />
        </mxCell>
        <mxCell id="SphZh9zDYfGgMT8O1et2-99" value="" style="line;strokeWidth=1;fillColor=none;align=left;verticalAlign=middle;spacingTop=-1;spacingLeft=3;spacingRight=3;rotatable=0;labelPosition=right;points=[];portConstraint=eastwest;strokeColor=inherit;" vertex="1" parent="SphZh9zDYfGgMT8O1et2-97">
          <mxGeometry y="56" width="260" height="8" as="geometry" />
        </mxCell>
        <mxCell id="SphZh9zDYfGgMT8O1et2-100" value="&lt;span id=&quot;docs-internal-guid-a009201a-7fff-92ae-3599-755b70b63832&quot;&gt;&lt;p style=&quot;line-height:1.38;margin-top:0pt;margin-bottom:0pt;&quot; dir=&quot;ltr&quot;&gt;&lt;span style=&quot;font-size: 11pt; font-family: Arial, sans-serif; background-color: transparent; font-variant-numeric: normal; font-variant-east-asian: normal; font-variant-alternates: normal; font-variant-position: normal; vertical-align: baseline; white-space-collapse: preserve;&quot;&gt;+ Home({Key? key})&amp;nbsp;&amp;nbsp;&amp;nbsp;&amp;nbsp;&amp;nbsp;&amp;nbsp;&amp;nbsp;&amp;nbsp;&amp;nbsp;&amp;nbsp;&amp;nbsp;&amp;nbsp;&amp;nbsp;&amp;nbsp;&amp;nbsp;&amp;nbsp;&amp;nbsp;&amp;nbsp;&amp;nbsp;&amp;nbsp;&amp;nbsp;&amp;nbsp;&amp;nbsp;&amp;nbsp;&amp;nbsp;&lt;/span&gt;&lt;/p&gt;&lt;p style=&quot;line-height:1.38;margin-top:0pt;margin-bottom:0pt;&quot; dir=&quot;ltr&quot;&gt;&lt;span style=&quot;font-size: 11pt; font-family: Arial, sans-serif; background-color: transparent; font-variant-numeric: normal; font-variant-east-asian: normal; font-variant-alternates: normal; font-variant-position: normal; vertical-align: baseline; white-space-collapse: preserve;&quot;&gt;+build(BuildContext): Widget &lt;/span&gt;&lt;/p&gt;&lt;div&gt;&lt;br&gt;&lt;/div&gt;&lt;/span&gt;" style="text;strokeColor=none;fillColor=none;align=left;verticalAlign=top;spacingLeft=4;spacingRight=4;overflow=hidden;rotatable=0;points=[[0,0.5],[1,0.5]];portConstraint=eastwest;whiteSpace=wrap;html=1;" vertex="1" parent="SphZh9zDYfGgMT8O1et2-97">
          <mxGeometry y="64" width="260" height="70" as="geometry" />
        </mxCell>
        <mxCell id="SphZh9zDYfGgMT8O1et2-157" value="" style="endArrow=diamondThin;endFill=0;endSize=24;html=1;rounded=0;exitX=0.383;exitY=0.007;exitDx=0;exitDy=0;exitPerimeter=0;entryX=0.349;entryY=0.98;entryDx=0;entryDy=0;entryPerimeter=0;" edge="1" parent="1" source="SphZh9zDYfGgMT8O1et2-66" target="SphZh9zDYfGgMT8O1et2-64">
          <mxGeometry width="160" relative="1" as="geometry">
            <mxPoint x="90" y="630" as="sourcePoint" />
            <mxPoint x="250" y="630" as="targetPoint" />
          </mxGeometry>
        </mxCell>
        <mxCell id="SphZh9zDYfGgMT8O1et2-159" value="&lt;div&gt;0..*&lt;/div&gt;&lt;div&gt;&lt;br&gt;&lt;/div&gt;" style="text;html=1;align=center;verticalAlign=middle;resizable=0;points=[];autosize=1;strokeColor=none;fillColor=none;" vertex="1" parent="1">
          <mxGeometry x="70" y="570" width="40" height="40" as="geometry" />
        </mxCell>
        <mxCell id="SphZh9zDYfGgMT8O1et2-161" value="" style="endArrow=diamondThin;endFill=0;endSize=24;html=1;rounded=0;exitX=0.646;exitY=-0.005;exitDx=0;exitDy=0;exitPerimeter=0;entryX=0.429;entryY=1.032;entryDx=0;entryDy=0;entryPerimeter=0;" edge="1" parent="1" source="SphZh9zDYfGgMT8O1et2-84" target="SphZh9zDYfGgMT8O1et2-73">
          <mxGeometry width="160" relative="1" as="geometry">
            <mxPoint x="590" y="560" as="sourcePoint" />
            <mxPoint x="840" y="440" as="targetPoint" />
          </mxGeometry>
        </mxCell>
        <mxCell id="SphZh9zDYfGgMT8O1et2-162" value="" style="endArrow=diamondThin;endFill=0;endSize=24;html=1;rounded=0;exitX=0.432;exitY=-0.008;exitDx=0;exitDy=0;exitPerimeter=0;entryX=0.635;entryY=1.041;entryDx=0;entryDy=0;entryPerimeter=0;" edge="1" parent="1" source="SphZh9zDYfGgMT8O1et2-80" target="SphZh9zDYfGgMT8O1et2-73">
          <mxGeometry width="160" relative="1" as="geometry">
            <mxPoint x="820" y="400" as="sourcePoint" />
            <mxPoint x="980" y="400" as="targetPoint" />
          </mxGeometry>
        </mxCell>
        <mxCell id="SphZh9zDYfGgMT8O1et2-163" value="n" style="text;html=1;align=center;verticalAlign=middle;resizable=0;points=[];autosize=1;strokeColor=none;fillColor=none;" vertex="1" parent="1">
          <mxGeometry x="535" y="428" width="30" height="30" as="geometry" />
        </mxCell>
        <mxCell id="SphZh9zDYfGgMT8O1et2-164" value="n" style="text;html=1;align=center;verticalAlign=middle;resizable=0;points=[];autosize=1;strokeColor=none;fillColor=none;" vertex="1" parent="1">
          <mxGeometry x="905" y="448" width="30" height="30" as="geometry" />
        </mxCell>
        <mxCell id="SphZh9zDYfGgMT8O1et2-165" value="" style="endArrow=open;endFill=1;endSize=12;html=1;rounded=0;exitX=0.412;exitY=0.027;exitDx=0;exitDy=0;exitPerimeter=0;entryX=0.472;entryY=1.013;entryDx=0;entryDy=0;entryPerimeter=0;" edge="1" parent="1" source="SphZh9zDYfGgMT8O1et2-97" target="SphZh9zDYfGgMT8O1et2-95">
          <mxGeometry width="160" relative="1" as="geometry">
            <mxPoint x="500" y="-520" as="sourcePoint" />
            <mxPoint x="660" y="-520" as="targetPoint" />
          </mxGeometry>
        </mxCell>
        <mxCell id="SphZh9zDYfGgMT8O1et2-166" value="" style="endArrow=open;endFill=1;endSize=12;html=1;rounded=0;exitX=0.605;exitY=-0.002;exitDx=0;exitDy=0;exitPerimeter=0;entryX=0.429;entryY=1.063;entryDx=0;entryDy=0;entryPerimeter=0;" edge="1" parent="1" source="SphZh9zDYfGgMT8O1et2-61" target="SphZh9zDYfGgMT8O1et2-100">
          <mxGeometry width="160" relative="1" as="geometry">
            <mxPoint x="340" y="-50" as="sourcePoint" />
            <mxPoint x="500" y="-50" as="targetPoint" />
          </mxGeometry>
        </mxCell>
        <mxCell id="SphZh9zDYfGgMT8O1et2-176" value="" style="endArrow=open;endFill=1;endSize=12;html=1;rounded=0;exitX=0.5;exitY=0;exitDx=0;exitDy=0;entryX=0.661;entryY=0.941;entryDx=0;entryDy=0;entryPerimeter=0;" edge="1" parent="1" source="SphZh9zDYfGgMT8O1et2-70" target="SphZh9zDYfGgMT8O1et2-100">
          <mxGeometry width="160" relative="1" as="geometry">
            <mxPoint x="296" y="49" as="sourcePoint" />
            <mxPoint x="660" y="-200" as="targetPoint" />
          </mxGeometry>
        </mxCell>
      </root>
    </mxGraphModel>
  </diagram>
</mxfile>
